<svg width="16" height="16" viewBox="0 0 16 16" fill="none" xmlns="http://www.w3.org/2000/svg">
<path d="M2.44746 1.88818C2.44703 1.88818 2.44654 1.88818 2.44611 1.88818C2.29478 1.88818 2.15245 1.94717 2.04498 2.05438C1.93632 2.16277 1.87646 2.30709 1.87646 2.46074V11.0461C1.87646 11.3609 2.1336 11.6177 2.44972 11.6185C3.78241 11.6217 6.0152 11.8994 7.55551 13.5113V4.52652C7.55551 4.4198 7.52825 4.31955 7.47681 4.23658C6.21259 2.20064 3.78316 1.89131 2.44746 1.88818Z" fill="white"/>
<path d="M14.1236 11.0461V2.46074C14.1236 2.30709 14.0637 2.16277 13.9551 2.05438C13.8476 1.94717 13.7051 1.88818 13.554 1.88818C13.5535 1.88818 13.553 1.88818 13.5526 1.88818C12.2169 1.89136 9.78751 2.2007 8.52323 4.23664C8.47179 4.3196 8.44458 4.41986 8.44458 4.52658V13.5113C9.98489 11.8994 12.2177 11.6217 13.5504 11.6185C13.8664 11.6177 14.1236 11.3609 14.1236 11.0461Z" fill="white"/>
<path d="M15.4275 3.86816H15.0123V11.0462C15.0123 11.85 14.3574 12.5054 13.5523 12.5074C12.4219 12.5101 10.5581 12.7312 9.23804 13.9805C11.521 13.4215 13.9277 13.7849 15.2993 14.0975C15.4706 14.1365 15.6475 14.0962 15.7848 13.9868C15.9215 13.8777 15.9999 13.7147 15.9999 13.5396V4.44061C16 4.12497 15.7431 3.86816 15.4275 3.86816Z" fill="white"/>
<path d="M0.987586 11.0462V3.86816H0.572446C0.256863 3.86816 0 4.12497 0 4.44061V13.5395C0 13.7146 0.078438 13.8776 0.215166 13.9867C0.352271 14.096 0.529079 14.1364 0.700608 14.0973C2.0722 13.7847 4.47894 13.4214 6.76183 13.9804C5.44185 12.7311 3.57798 12.5101 2.44758 12.5074C1.64256 12.5054 0.987586 11.85 0.987586 11.0462Z" fill="white"/>
</svg>
