<svg width="16" height="16" viewBox="0 0 16 16" fill="none" xmlns="http://www.w3.org/2000/svg">
<g clip-path="url(#clip0_1565_3707)">
<path d="M1.44946 0V2.11619H3.21165V3.05188H1.44946V4.82434H3.21165V5.76003H1.44946V7.53219H3.21165V8.46787H1.44946V10.24H3.21165V11.1757H1.44946V12.9482H3.21165V13.8839H1.44946V16H15.3751V0H1.44946ZM6.60915 13.3032L5.24446 11.9412L5.90737 11.2796L6.60915 11.98L8.12534 10.4668L8.78824 11.1284L6.60915 13.3032ZM6.60915 9.36116L5.24449 7.99916L5.9074 7.33753L6.60915 8.03791L8.12534 6.52466L8.78824 7.18628L6.60915 9.36116ZM6.60915 5.41909L5.24449 4.05709L5.9074 3.39547L6.60915 4.09584L8.12534 2.58259L8.78824 3.24422L6.60915 5.41909ZM13.2653 12.6617H10.2252V11.726H13.2653V12.6617ZM13.2653 8.47053H10.2252V7.53484H13.2653V8.47053ZM13.2653 4.58594H10.2252V3.65025H13.2653V4.58594Z" fill="white"/>
<path d="M0.625 10.24H1.44938V11.1757H0.625V10.24Z" fill="white"/>
<path d="M0.625 12.9482H1.44938V13.8839H0.625V12.9482Z" fill="white"/>
<path d="M0.625 4.82422H1.44938V5.75991H0.625V4.82422Z" fill="white"/>
<path d="M0.625 7.53223H1.44938V8.46791H0.625V7.53223Z" fill="white"/>
<path d="M0.625 2.11621H1.44938V3.0519H0.625V2.11621Z" fill="white"/>
</g>
<defs>
<clipPath id="clip0_1565_3707">
<rect width="16" height="16" fill="white"/>
</clipPath>
</defs>
</svg>
